<svg id="Graphic_Elements" data-name="Graphic Elements" xmlns="http://www.w3.org/2000/svg" viewBox="0 0 894.81 187.19"><defs><style>.cls-1,.cls-2,.cls-3,.cls-4{fill:none;stroke-linecap:round;stroke-linejoin:round;stroke-width:30px;}.cls-1{stroke:#453179;}.cls-2{stroke:#28d4a4;}.cls-3{stroke:#328af1;}.cls-4{stroke:#fff;}.cls-5{fill:#fff;}</style></defs><title>logo-light</title><path class="cls-1" d="M138.23,126.31l-31.29,38.18a10.07,10.07,0,0,1-15.58,0L70.5,139" transform="translate(-1.49 -0.27)"/><path class="cls-2" d="M179.78,45.05a42.87,42.87,0,0,1-10.51,43.39" transform="translate(-1.49 -0.27)"/><path class="cls-2" d="M125.85,17.32a42.88,42.88,0,0,1,43.42,10.51,42.71,42.71,0,0,1,10.51,17.22" transform="translate(-1.49 -0.27)"/><path class="cls-3" d="M70.5,139,29,88.44a42.85,42.85,0,1,1,60.6-60.61l9.51,9.51,9.51-9.51a42.79,42.79,0,0,1,17.19-10.51" transform="translate(-1.49 -0.27)"/><line class="cls-4" x1="20.25" y1="141.68" x2="81.26" y2="141.68"/><line class="cls-4" x1="50.76" y1="111.17" x2="50.76" y2="172.19"/><path class="cls-5" d="M238,149.5V41.87h48.89q17.54,0,30.91,6.68a50.9,50.9,0,0,1,20.91,18.76q7.53,12.07,7.54,28.37t-7.54,28.37a50.83,50.83,0,0,1-20.91,18.76q-13.38,6.69-30.91,6.69Zm25.06-20.3h22.6a40.26,40.26,0,0,0,18.68-4.07,29.48,29.48,0,0,0,12.31-11.69,35,35,0,0,0,4.38-17.76,34.86,34.86,0,0,0-4.38-17.83,29.54,29.54,0,0,0-12.31-11.61,40.27,40.27,0,0,0-18.68-4.08H263.1Z" transform="translate(-1.49 -0.27)"/><path class="cls-5" d="M402.56,150.73a48.12,48.12,0,0,1-23.29-5.54,40.9,40.9,0,0,1-21.92-37,41.59,41.59,0,0,1,5.85-22.07A41,41,0,0,1,379.27,71a48.77,48.77,0,0,1,23.29-5.46A49.6,49.6,0,0,1,426.09,71a41,41,0,0,1,16.14,15.07,41.59,41.59,0,0,1,5.84,22.07,41.2,41.2,0,0,1-5.84,22,41.71,41.71,0,0,1-16.14,15.06A48.94,48.94,0,0,1,402.56,150.73Zm0-19.68a21.44,21.44,0,0,0,10.84-2.69,19.82,19.82,0,0,0,7.54-7.92,25.42,25.42,0,0,0,2.84-12.3,24.86,24.86,0,0,0-2.84-12.3,20,20,0,0,0-7.54-7.77,21.14,21.14,0,0,0-10.69-2.69A21.56,21.56,0,0,0,392,88.07a19.83,19.83,0,0,0-7.61,7.77,24.75,24.75,0,0,0-2.84,12.3,25.31,25.31,0,0,0,2.84,12.3,19.65,19.65,0,0,0,7.61,7.92A21.24,21.24,0,0,0,402.56,131.05Z" transform="translate(-1.49 -0.27)"/><path class="cls-5" d="M504,150.73a50.26,50.26,0,0,1-23.75-5.46,40.78,40.78,0,0,1-22.22-37.13,40.79,40.79,0,0,1,5.92-22,42,42,0,0,1,16.3-15.07A49.71,49.71,0,0,1,504,65.54q13.08,0,22.84,5.46A31.67,31.67,0,0,1,541,86.46L522.5,96.61a22.36,22.36,0,0,0-8.15-8.54,21,21,0,0,0-10.46-2.69A22.42,22.42,0,0,0,493,88.07a20,20,0,0,0-7.84,7.77,24.23,24.23,0,0,0-2.92,12.3,24.7,24.7,0,0,0,2.92,12.38,20,20,0,0,0,7.84,7.84,22.42,22.42,0,0,0,10.92,2.69,21,21,0,0,0,10.46-2.69,22.14,22.14,0,0,0,8.15-8.69L541,129.82a32.17,32.17,0,0,1-14.07,15.37Q517.12,150.73,504,150.73Z" transform="translate(-1.49 -0.27)"/><path class="cls-5" d="M593.84,150.73a50.24,50.24,0,0,1-23.75-5.46,40.78,40.78,0,0,1-22.22-37.13,40.79,40.79,0,0,1,5.92-22,42,42,0,0,1,16.3-15.07,49.68,49.68,0,0,1,23.75-5.54q13.06,0,22.84,5.46a31.76,31.76,0,0,1,14.07,15.46L612.29,96.61a22.22,22.22,0,0,0-8.15-8.54,20.91,20.91,0,0,0-10.45-2.69,22.42,22.42,0,0,0-10.92,2.69,20,20,0,0,0-7.84,7.77,24.23,24.23,0,0,0-2.92,12.3,24.7,24.7,0,0,0,2.92,12.38,20,20,0,0,0,7.84,7.84,22.42,22.42,0,0,0,10.92,2.69,20.91,20.91,0,0,0,10.45-2.69,22,22,0,0,0,8.15-8.69l18.46,10.15a32.27,32.27,0,0,1-14.07,15.37Q606.92,150.73,593.84,150.73Z" transform="translate(-1.49 -0.27)"/><path class="cls-5" d="M679.64,150.73a40.67,40.67,0,0,1-18.45-4,28.3,28.3,0,0,1-12.46-12.3q-4.46-8.3-4.45-20.91V66.77h24v43.06q0,10.45,4.38,15.3T685,130a19.48,19.48,0,0,0,9.84-2.46,17.48,17.48,0,0,0,6.85-7.38,26.7,26.7,0,0,0,2.53-12.3V66.77h23.84V149.5H705.32V126.59l4.15,6.76a29.3,29.3,0,0,1-12.3,13A35.88,35.88,0,0,1,679.64,150.73Z" transform="translate(-1.49 -0.27)"/><path class="cls-5" d="M750.37,149.5V66.77h22.91V90.3l-3.23-6.92a26.63,26.63,0,0,1,11.84-13.3q8.16-4.53,19.84-4.54v22.3c-.92-.2-1.82-.36-2.69-.46a22.29,22.29,0,0,0-2.54-.15q-10.14,0-16.14,5.69t-6,17.52V149.5Z" transform="translate(-1.49 -0.27)"/><path class="cls-5" d="M856.32,150.73q-14.16,0-24.76-5.54a40.87,40.87,0,0,1-16.45-15.14,41.29,41.29,0,0,1-5.84-21.91,43,43,0,0,1,5.61-22A39.49,39.49,0,0,1,830.56,71a46.9,46.9,0,0,1,22.68-5.46,45.73,45.73,0,0,1,21.91,5.23,39.39,39.39,0,0,1,15.46,14.76q5.68,9.54,5.69,22.92c0,.92-.06,2-.16,3.15s-.2,2.28-.31,3.3H828.64v-14h54.59l-9.38,4.15a21.93,21.93,0,0,0-2.46-11.22,19.14,19.14,0,0,0-7.23-7.46,21,21,0,0,0-10.76-2.69,21.45,21.45,0,0,0-10.85,2.69,18.83,18.83,0,0,0-7.3,7.53,23.82,23.82,0,0,0-2.61,11.46v3.69a22.68,22.68,0,0,0,3.07,12,20.23,20.23,0,0,0,8.46,7.77,28.66,28.66,0,0,0,12.92,2.69,30.7,30.7,0,0,0,11.45-2,28.21,28.21,0,0,0,9.15-6l12.76,13.84a37.15,37.15,0,0,1-14.3,9.92A52.82,52.82,0,0,1,856.32,150.73Z" transform="translate(-1.49 -0.27)"/></svg>