<svg id="Graphic_Elements" data-name="Graphic Elements" xmlns="http://www.w3.org/2000/svg" viewBox="0 0 195.38 187.19"><defs><style>.cls-1,.cls-2,.cls-3,.cls-4{fill:none;stroke-linecap:round;stroke-linejoin:round;stroke-width:30px;}.cls-1{stroke:#453179;}.cls-2{stroke:#28d4a4;}.cls-3{stroke:#328af1;}.cls-4{stroke:#222221;}</style></defs><title>logo-icon-dark</title><path class="cls-1" d="M136.8,126l-31.29,38.18a10.08,10.08,0,0,1-14.17,1.41,9.89,9.89,0,0,1-1.41-1.41L69.07,138.73" transform="translate(-0.01 0)"/><path class="cls-2" d="M178.35,44.78a42.87,42.87,0,0,1-10.51,43.39" transform="translate(-0.01 0)"/><path class="cls-2" d="M124.42,17.05a42.88,42.88,0,0,1,53.93,27.73" transform="translate(-0.01 0)"/><path class="cls-3" d="M69.07,138.73,27.57,88.17a42.85,42.85,0,1,1,60.6-60.61l9.51,9.51,9.51-9.51a42.82,42.82,0,0,1,17.19-10.51" transform="translate(-0.01 0)"/><line class="cls-4" x1="20.29" y1="141.68" x2="81.3" y2="141.68"/><line class="cls-4" x1="50.8" y1="111.17" x2="50.8" y2="172.19"/></svg>